<?xml version="1.0" encoding="UTF-8" standalone="no"?>
<!DOCTYPE svg PUBLIC "-//W3C//DTD SVG 1.1//EN" "http://www.w3.org/Graphics/SVG/1.1/DTD/svg11.dtd">
<svg xmlns="http://www.w3.org/2000/svg" xmlns:xlink="http://www.w3.org/1999/xlink" version="1.1" width="240.945pt" height="155.906pt" viewBox="0 0 240.945 155.906">
<g enable-background="new">
<clipPath id="cp0">
<path transform="matrix(1,0,0,-1,0,155.906)" d="M 0 0 L 240.945 0 L 240.945 155.906 L 0 155.906 Z "/>
</clipPath>
<g clip-path="url(#cp0)">
<path transform="matrix(1,0,0,-1,29.0084,104.61751)" d="M 0 0 C 0 0 3.515 1.393 5.67 -.762 C 5.67 -.762 6.399 -18.999 6.366 -18.999 C 6.333 -18.999 13.661 -18.966 13.661 -18.966 C 13.661 -18.966 13.793 -.199 16.115 -.099 C 16.115 -.099 18.834 .232 19.663 .133 C 20.491 .033 20.624 .033 20.624 .033 L 21.354 4.741 C 21.354 4.741 12.401 9.981 -1.061 4.874 C -1.061 4.874 -1.426 3.382 0 0 " fill="#828884"/>
<path transform="matrix(1,0,0,-1,76.9879,100.8376)" d="M 0 0 C 0 0 3.846 -.696 4.078 -3.846 C 4.31 -6.997 4.443 -22.282 4.443 -22.282 L 11.472 -22.282 L 12.732 -3.482 C 12.732 -3.482 16.678 -7.56 17.341 -12.335 C 18.005 -17.109 18.402 -22.149 18.402 -22.149 L 28.648 -21.088 C 28.648 -21.088 29.411 -20.756 29.411 -20.292 C 29.411 -19.828 29.179 -19.662 28.449 -19.397 C 27.72 -19.132 25.598 -18.667 25.598 -18.667 L 26.36 3.15 L 17.64 1.16 L 17.574 -1.26 L 12.202 3.448 L .663 .729 C .663 .729 -.63 .431 0 0 " fill="#828884"/>
<path transform="matrix(1,0,0,-1,134.3836,106.57361)" d="M 0 0 L 13.296 8.687 C 13.296 8.687 14.987 9.947 16.081 8.754 C 17.175 7.56 21.586 1.757 21.586 1.757 L 22.05 1.094 C 22.05 1.094 22.579 .596 21.95 .132 C 21.321 -.332 20.358 -1.128 20.358 -1.128 C 20.358 -1.128 20.325 -1.658 19.563 -1.261 C 18.8 -.863 16.38 .629 16.38 .629 C 16.38 .629 15.783 .829 15.02 .398 C 14.258 -.033 8.953 -4.311 8.953 -4.311 C 8.953 -4.311 8.555 -4.51 8.787 -5.239 C 9.019 -5.968 11.671 -13.528 15.385 -10.975 C 15.385 -10.975 17.607 -8.886 16.115 -5.869 C 16.115 -5.869 15.849 -5.471 16.479 -5.471 C 17.109 -5.471 26.625 -5.604 26.625 -5.604 L 26.626 -15.651 L 19.464 -15.651 L 19.132 -12.335 L 12.567 -15.717 C 12.567 -15.717 11.506 -16.513 10.81 -15.817 C 10.114 -15.121 -.531 -1.724 -.531 -1.724 C -.531 -1.724 -1.227 -.663 0 0 " fill="#828884"/>
<path transform="matrix(1,0,0,-1,189.9889,119.9698)" d="M 0 0 L -1.757 .033 C -1.757 .033 -6.366 5.803 -7.228 6.731 C -8.09 7.659 -5.504 7.361 -4.576 7.659 C -3.648 7.958 -3.216 8.621 -3.216 8.621 C -3.216 8.621 -2.32 10.411 -2.022 11.075 C -1.724 11.739 -2.221 12.898 -2.221 12.898 C -2.221 12.898 -8.057 21.486 -9.052 22.514 C -10.047 23.542 -10.843 22.912 -10.843 22.912 L -16.844 20.458 C -16.844 20.458 -16.976 22.315 -16.976 22.813 C -16.976 23.31 -17.639 23.177 -17.639 23.177 L -28.25 20.491 C -29.809 20.093 -28.979 19.198 -28.979 19.198 C -28.979 19.198 -26.725 17.076 -26.592 16.976 C -26.459 16.877 -25.631 16.015 -25.631 16.015 L -25.697 -2.321 C -25.697 -2.321 -19.828 -2.354 -19.298 -2.321 C -18.768 -2.289 -18.767 -1.824 -18.767 -1.824 C -18.767 -1.824 -18.502 4.741 -18.17 5.803 C -17.838 6.864 -16.811 5.935 -16.811 5.935 C -16.811 5.935 -9.715 -1.16 -9.019 -1.79 C -8.322 -2.421 -8.157 -2.089 -8.157 -2.089 C -8.157 -2.089 -.995 -.995 -.563 -.929 C -.132 -.863 .431 -.63 .497 -.332 C .563 -.033 0 0 0 0 M -8.886 12.832 C -9.019 12.269 -9.649 11.705 -9.848 11.572 C -10.047 11.439 -14.854 10.08 -15.683 10.18 C -16.512 10.279 -17.11 10.212 -15.054 12.534 C -12.997 14.855 -9.98 18.27 -9.317 17.01 C -9.317 17.01 -8.754 13.395 -8.886 12.832 " fill="#828884"/>
<path transform="matrix(1,0,0,-1,212.8015,108.26541)" d="M 0 0 C -.63 .531 -11.174 10.776 -11.174 10.776 L -11.871 12.434 L -22.912 9.915 C -22.912 9.915 -24.271 9.584 -24.205 9.019 C -24.139 8.455 -22.813 8.422 -22.216 8.057 C -21.619 7.693 -20.922 7.228 -20.955 6.565 L -20.458 -13.694 L -13.296 -13.528 L -13.296 -10.743 L -4.874 -10.511 L -4.343 -13.13 C -4.343 -13.13 -4.078 -13.727 -3.349 -13.628 C -2.62 -13.528 -.63 -13.461 -.63 -13.461 L -.431 -13.461 C -.431 -13.461 -.63 -8.223 -.398 -6.83 C -.166 -5.438 .63 -.531 0 0 M -13.297 -8.422 L -13.926 5.173 C -13.926 5.173 -14.159 5.836 -13.562 6.035 C -12.965 6.234 -12.302 5.902 -11.97 5.405 C -11.638 4.908 -8.754 .332 -8.157 -.364 C -7.56 -1.061 -6.632 -2.951 -6.499 -3.349 C -6.366 -3.747 -5.87 -6.001 -5.637 -6.333 C -5.405 -6.665 -5.305 -7.891 -5.305 -7.891 Z " fill="#828884"/>
<path transform="matrix(1,0,0,-1,130.6371,108.331409)" d="M 0 0 C -1.194 1.161 -10.014 9.649 -10.014 9.649 C -10.014 9.649 -10.545 10.445 -10.71 10.743 C -10.876 11.041 -10.909 11.672 -11.904 11.506 C -12.899 11.34 -22.249 8.953 -22.249 8.953 C -22.249 8.953 -23.343 8.919 -23.343 8.555 C -23.343 8.19 -23.111 7.893 -22.448 7.627 C -22.448 7.627 -20.227 6.897 -20.193 6.3 C -20.16 5.703 -19.597 -14.589 -19.597 -14.589 L -12.567 -14.589 L -12.534 -11.605 L -4.078 -11.306 C -4.078 -11.306 -3.914 -14.058 -3.548 -14.39 L .398 -14.39 C .398 -14.39 .365 -7.892 .597 -6.466 C .828 -5.04 1.194 -1.161 0 0 M -12.567 -9.284 L -13.196 4.311 C -13.196 4.311 -13.429 4.974 -12.832 5.173 C -12.235 5.372 -11.572 5.04 -11.24 4.543 C -10.909 4.046 -8.024 -.53 -7.427 -1.226 C -6.83 -1.923 -5.902 -3.813 -5.769 -4.21 C -5.637 -4.608 -5.14 -6.863 -4.908 -7.195 C -4.675 -7.526 -4.576 -8.753 -4.576 -8.753 Z " fill="#828884"/>
<path transform="matrix(1,0,0,-1,65.9795,99.18001)" d="M 0 0 L -.696 1.824 L -12.633 -.895 C -12.633 -.895 -13.296 -.995 -12.832 -1.89 C -12.832 -1.89 -10.046 -2.454 -9.914 -3.217 C -9.781 -3.979 -9.218 -24.305 -9.218 -24.305 L -2.221 -24.204 L -2.056 -21.287 L 6.101 -21.055 L 6.466 -23.409 C 6.466 -23.409 6.599 -24.105 7.228 -24.138 C 7.858 -24.172 10.577 -24.072 10.577 -24.072 C 10.577 -24.072 11.041 -11.207 11.307 -10.71 Z M -2.155 -18.833 L -2.785 -5.239 C -2.785 -5.239 -3.017 -4.575 -2.42 -4.376 C -1.824 -4.177 -1.161 -4.509 -.829 -5.006 C -.497 -5.504 2.388 -10.079 2.985 -10.776 C 3.581 -11.472 4.509 -13.362 4.642 -13.76 C 4.775 -14.158 5.272 -16.412 5.504 -16.744 C 5.736 -17.076 5.836 -18.302 5.836 -18.302 Z " fill="#828884"/>
<path transform="matrix(1,0,0,-1,42.8751,130.5196)" d="M 0 0 C -.204 -.497 -.459 -1.236 -.573 -1.707 C -.624 -1.809 -.879 -1.796 -.917 -1.694 C -.675 -.586 -.994 .013 -2.305 .013 C -3.21 .013 -4.395 -.267 -5.566 -1.414 C -6.203 -2.051 -7.07 -3.541 -7.07 -5.222 C -7.07 -7.031 -6.216 -8.012 -4.598 -8.012 C -3.274 -8.012 -2.471 -7.235 -1.86 -6.229 C -1.732 -6.178 -1.592 -6.203 -1.554 -6.318 C -1.669 -6.662 -1.949 -7.337 -2.382 -8.114 C -2.662 -8.114 -3.006 -8.19 -3.388 -8.254 C -3.757 -8.318 -4.178 -8.407 -4.624 -8.407 C -6.28 -8.407 -8.19 -7.655 -8.19 -4.98 C -8.19 -3.503 -7.413 -2.089 -6.369 -1.146 C -5.299 -.178 -3.757 .408 -2.089 .408 C -1.095 .408 -.319 .127 0 0 " fill="#828884"/>
<path transform="matrix(1,0,0,-1,54.5491,133.2326)" d="M 0 0 C .216 .102 .548 -.026 .624 -.191 C .433 -.662 -.675 -3.478 -1.082 -4.637 C -1.159 -4.853 -1.095 -4.93 -.994 -4.93 C -.777 -4.93 -.408 -4.713 .319 -4.076 C .408 -4.076 .497 -4.14 .497 -4.242 C -.038 -4.955 -.943 -5.668 -1.643 -5.668 C -1.936 -5.668 -2.012 -5.426 -2.012 -5.324 C -2.012 -5.235 -1.987 -5.121 -1.885 -4.828 L -1.465 -3.681 L -1.503 -3.668 C -2.408 -4.789 -3.706 -5.668 -4.305 -5.668 C -4.662 -5.668 -4.866 -5.312 -4.866 -4.955 C -4.866 -4.662 -4.585 -3.643 -3.745 -2.484 C -3.133 -1.643 -2.586 -1.134 -2.063 -.841 C -1.567 -.561 -1.248 -.471 -.917 -.471 C -.777 -.471 -.688 -.51 -.611 -.548 C -.56 -.573 -.42 -.688 -.357 -.815 Z M -2.216 -1.452 C -3.032 -2.178 -3.809 -3.847 -3.809 -4.751 C -3.809 -4.904 -3.732 -4.993 -3.618 -4.993 C -3.49 -4.993 -3.108 -4.828 -2.382 -4.165 C -1.414 -3.261 -.879 -2.165 -.675 -1.414 C -.764 -1.172 -.981 -.955 -1.312 -.955 C -1.618 -.955 -1.822 -1.095 -2.216 -1.452 " fill="#828884"/>
<path transform="matrix(1,0,0,-1,65.9053,134.17531)" d="M 0 0 C -.077 -.216 -.178 -.624 -.331 -1.185 C -.713 -2.611 -1.057 -3.834 -1.465 -5.235 C -1.796 -6.381 -2.216 -7.031 -2.471 -7.286 C -2.662 -7.464 -3.248 -7.974 -4 -7.974 C -4.688 -7.974 -4.93 -7.541 -4.93 -7.35 C -4.93 -7.095 -4.777 -6.878 -4.637 -6.777 C -4.535 -6.7 -4.42 -6.738 -4.344 -6.827 C -4.038 -7.146 -3.656 -7.35 -3.375 -7.35 C -3.121 -7.35 -2.853 -7.26 -2.56 -6.28 C -1.974 -4.267 -1.529 -2.076 -.917 0 L -1.974 0 C -2.102 .115 -2.051 .357 -1.885 .471 L -.79 .471 C -.458 1.618 -.115 2.611 .637 3.503 C 1.274 4.254 1.936 4.56 2.675 4.56 C 3.146 4.56 3.656 4.229 3.656 3.719 C 3.656 3.388 3.312 2.993 3.108 2.993 C 2.993 2.993 2.942 3.108 2.929 3.197 C 2.891 3.898 2.535 4.127 2.216 4.127 C 1.936 4.127 1.592 3.872 1.299 3.439 C .713 2.586 .459 1.681 .115 .471 L 1.707 .471 C 1.796 .331 1.77 .14 1.58 0 Z " fill="#828884"/>
<path transform="matrix(1,0,0,-1,79.0326,134.17531)" d="M 0 0 C -.077 -.216 -.178 -.624 -.331 -1.185 C -.713 -2.611 -1.057 -3.834 -1.465 -5.235 C -1.796 -6.381 -2.216 -7.031 -2.471 -7.286 C -2.662 -7.464 -3.248 -7.974 -4 -7.974 C -4.688 -7.974 -4.93 -7.541 -4.93 -7.35 C -4.93 -7.095 -4.777 -6.878 -4.637 -6.777 C -4.535 -6.7 -4.42 -6.738 -4.344 -6.827 C -4.038 -7.146 -3.656 -7.35 -3.375 -7.35 C -3.121 -7.35 -2.853 -7.26 -2.56 -6.28 C -1.974 -4.267 -1.529 -2.076 -.917 0 L -1.974 0 C -2.102 .115 -2.051 .357 -1.885 .471 L -.79 .471 C -.459 1.618 -.115 2.611 .637 3.503 C 1.274 4.254 1.936 4.56 2.675 4.56 C 3.146 4.56 3.656 4.229 3.656 3.719 C 3.656 3.388 3.312 2.993 3.108 2.993 C 2.993 2.993 2.942 3.108 2.929 3.197 C 2.891 3.898 2.535 4.127 2.216 4.127 C 1.936 4.127 1.592 3.872 1.299 3.439 C .713 2.586 .459 1.681 .115 .471 L 1.707 .471 C 1.796 .331 1.77 .14 1.58 0 Z " fill="#828884"/>
<path transform="matrix(1,0,0,-1,92.1093,134.2899)" d="M 0 0 C 0 -.968 -1.261 -1.605 -3.095 -2.115 C -3.185 -2.331 -3.274 -2.739 -3.274 -3.248 C -3.274 -3.681 -3.006 -3.974 -2.662 -3.974 C -2.204 -3.974 -1.885 -3.719 -1.325 -3.236 C -1.21 -3.236 -1.134 -3.337 -1.159 -3.452 C -1.936 -4.407 -2.662 -4.611 -3.197 -4.611 C -3.961 -4.611 -4.229 -3.898 -4.229 -3.274 C -4.229 -2.471 -3.719 -.917 -2.331 .153 C -1.669 .662 -1.172 .764 -.802 .764 C -.293 .764 0 .331 0 0 M -2.025 -.242 C -2.522 -.777 -2.815 -1.363 -2.968 -1.732 C -2.127 -1.478 -1.732 -1.236 -1.261 -.79 C -.866 -.42 -.764 -.038 -.764 .077 C -.764 .204 -.828 .369 -1.057 .369 C -1.236 .369 -1.567 .255 -2.025 -.242 M -.688 1.477 C -.688 1.376 -.841 1.325 -.917 1.337 L -2.013 2.942 C -2.127 3.108 -2.191 3.223 -2.191 3.299 C -2.191 3.388 -2.127 3.49 -1.974 3.592 C -1.796 3.719 -1.669 3.757 -1.579 3.757 C -1.452 3.757 -1.388 3.63 -1.337 3.477 Z " fill="#828884"/>
<path transform="matrix(1,0,0,-1,120.1863,130.5196)" d="M 0 0 C -.204 -.497 -.459 -1.236 -.573 -1.707 C -.624 -1.809 -.879 -1.796 -.917 -1.694 C -.675 -.586 -.994 .013 -2.305 .013 C -3.21 .013 -4.395 -.267 -5.566 -1.414 C -6.203 -2.051 -7.07 -3.541 -7.07 -5.222 C -7.07 -7.031 -6.216 -8.012 -4.598 -8.012 C -3.274 -8.012 -2.471 -7.235 -1.86 -6.229 C -1.732 -6.178 -1.592 -6.203 -1.554 -6.318 C -1.669 -6.662 -1.949 -7.337 -2.382 -8.114 C -2.662 -8.114 -3.006 -8.19 -3.388 -8.254 C -3.757 -8.318 -4.178 -8.407 -4.624 -8.407 C -6.28 -8.407 -8.19 -7.655 -8.19 -4.98 C -8.19 -3.503 -7.413 -2.089 -6.369 -1.146 C -5.299 -.178 -3.757 .408 -2.089 .408 C -1.095 .408 -.319 .127 0 0 " fill="#828884"/>
<path transform="matrix(1,0,0,-1,131.8603,135.1308)" d="M 0 0 C -.038 -.701 -.408 -1.923 -1.351 -2.891 C -2.14 -3.707 -2.828 -3.77 -3.172 -3.77 C -3.987 -3.77 -4.522 -3.171 -4.445 -2.076 C -4.395 -1.287 -3.923 -.051 -3.057 .777 C -2.395 1.414 -1.822 1.605 -1.299 1.605 C -.395 1.605 .051 .93 0 0 M -2.319 .612 C -3.057 -.382 -3.555 -1.898 -3.592 -2.573 C -3.618 -3.019 -3.44 -3.388 -3.07 -3.388 C -2.79 -3.388 -2.471 -3.273 -2.064 -2.726 C -1.503 -1.974 -.905 -.293 -.879 .382 C -.867 .777 -.943 1.223 -1.389 1.223 C -1.643 1.223 -1.949 1.108 -2.319 .612 " fill="#828884"/>
<path transform="matrix(1,0,0,-1,142.1339,136.27701)" d="M 0 0 L .038 -.026 C .943 1.35 2.204 2.751 3.159 2.751 C 3.656 2.751 3.873 2.484 3.873 2.064 C 3.873 1.86 3.771 1.465 3.669 1.172 C 3.44 .535 2.522 -1.541 2.484 -1.643 C 2.433 -1.771 2.42 -1.885 2.509 -1.885 C 2.726 -1.885 3.337 -1.465 3.707 -1.019 C 3.885 -.994 3.911 -1.095 3.911 -1.197 C 3.426 -2.012 2.42 -2.624 1.72 -2.624 C 1.605 -2.624 1.414 -2.458 1.414 -2.305 C 1.414 -2.191 1.452 -2.102 1.72 -1.465 C 1.987 -.841 2.459 .408 2.752 1.044 C 2.854 1.274 3.019 1.719 3.019 1.974 C 3.019 2.127 3.006 2.28 2.815 2.28 C 2.509 2.28 1.758 1.643 1.058 .764 C .382 -.077 -.14 -1.07 -.891 -2.471 C -.955 -2.586 -1.006 -2.624 -1.121 -2.624 C -1.261 -2.624 -1.605 -2.586 -1.49 -2.293 C -1.427 -2.127 -.076 1.541 -.012 1.719 C .051 1.885 .051 2.012 -.05 2.012 C -.343 2.012 -.789 1.745 -1.21 1.375 C -1.312 1.375 -1.375 1.465 -1.363 1.567 C -.879 2.229 -.102 2.751 .535 2.751 C .841 2.751 .981 2.522 .867 2.229 Z " fill="#828884"/>
<path transform="matrix(1,0,0,-1,158.9417,134.2771)" d="M 0 0 C 0 -.51 -.497 -.599 -.624 -.599 C -.751 -.599 -.853 -.522 -.879 -.37 C -.917 -.051 -.905 .331 -1.325 .331 C -1.605 .331 -2 .064 -2.395 -.522 C -2.815 -1.147 -3.21 -2.178 -3.248 -3.159 C -3.274 -3.796 -3.006 -3.987 -2.701 -3.987 C -2.28 -3.987 -1.809 -3.656 -1.325 -3.21 C -1.198 -3.197 -1.121 -3.299 -1.159 -3.427 C -1.656 -4.076 -2.459 -4.624 -3.261 -4.624 C -3.757 -4.624 -4.216 -4.254 -4.216 -3.274 C -4.216 -2.446 -3.719 -.994 -2.599 .012 C -2.063 .497 -1.516 .751 -.943 .751 C -.306 .751 0 .395 0 0 " fill="#828884"/>
<path transform="matrix(1,0,0,-1,171.1396,134.2899)" d="M 0 0 C 0 -.968 -1.261 -1.605 -3.095 -2.115 C -3.185 -2.331 -3.274 -2.739 -3.274 -3.248 C -3.274 -3.681 -3.006 -3.974 -2.662 -3.974 C -2.204 -3.974 -1.885 -3.719 -1.325 -3.236 C -1.21 -3.236 -1.134 -3.337 -1.16 -3.452 C -1.937 -4.407 -2.662 -4.611 -3.197 -4.611 C -3.962 -4.611 -4.229 -3.898 -4.229 -3.274 C -4.229 -2.471 -3.719 -.917 -2.331 .153 C -1.669 .662 -1.172 .764 -.803 .764 C -.293 .764 0 .331 0 0 M -2.025 -.242 C -2.522 -.777 -2.815 -1.363 -2.968 -1.732 C -2.127 -1.478 -1.732 -1.236 -1.261 -.79 C -.867 -.42 -.765 -.038 -.765 .077 C -.765 .204 -.828 .369 -1.058 .369 C -1.236 .369 -1.567 .255 -2.025 -.242 " fill="#828884"/>
<path transform="matrix(1,0,0,-1,181.3503,134.73561)" d="M 0 0 L -.548 -1.605 L -.484 -1.605 C -.102 -.892 .522 .127 .853 .547 C 1.146 .93 1.465 1.21 1.784 1.21 C 2.229 1.21 2.293 .777 2.293 .586 C 2.293 .395 2.178 .025 2.025 -.178 C 1.872 -.369 1.669 -.382 1.617 -.115 C 1.554 .216 1.477 .382 1.35 .382 C 1.236 .382 1.095 .254 .905 0 C .127 -.994 -.586 -2.548 -1.261 -4.013 C -1.312 -4.115 -1.376 -4.165 -1.477 -4.165 C -1.618 -4.165 -1.987 -4.115 -1.898 -3.834 C -1.732 -3.325 -.93 -1.07 -.586 .178 C -.548 .318 -.574 .446 -.688 .446 C -1.019 .446 -1.363 .089 -1.592 -.217 C -1.72 -.242 -1.809 -.166 -1.796 -.013 C -1.389 .675 -.905 1.21 -.293 1.21 C .344 1.21 .114 .344 0 0 " fill="#828884"/>
<path transform="matrix(1,0,0,-1,193.8924,134.31562)" d="M 0 0 L -1.146 -3.35 C -1.222 -3.592 -1.159 -3.668 -1.057 -3.668 C -.866 -3.668 -.026 -3.006 .395 -2.522 C .522 -2.522 .598 -2.598 .574 -2.751 C -.14 -3.808 -1.337 -4.585 -1.872 -4.585 C -2.051 -4.585 -2.216 -4.394 -2.216 -4.242 C -2.216 -4.076 -2.165 -3.898 -2.038 -3.515 L -.841 0 L -1.834 0 C -1.86 .127 -1.822 .306 -1.694 .357 L -.675 .535 L .038 1.796 C .166 1.873 .42 1.847 .522 1.72 L .153 .471 L 1.541 .471 C 1.63 .344 1.554 .089 1.389 0 Z " fill="#828884"/>
<path transform="matrix(1,0,0,-1,207.5427,135.1308)" d="M 0 0 C -.038 -.701 -.408 -1.923 -1.351 -2.891 C -2.14 -3.707 -2.828 -3.77 -3.172 -3.77 C -3.988 -3.77 -4.522 -3.171 -4.446 -2.076 C -4.395 -1.287 -3.924 -.051 -3.057 .777 C -2.395 1.414 -1.822 1.605 -1.299 1.605 C -.395 1.605 .051 .93 0 0 M -2.318 .612 C -3.057 -.382 -3.554 -1.898 -3.592 -2.573 C -3.618 -3.019 -3.44 -3.388 -3.07 -3.388 C -2.79 -3.388 -2.471 -3.273 -2.064 -2.726 C -1.503 -1.974 -.905 -.293 -.879 .382 C -.867 .777 -.943 1.223 -1.389 1.223 C -1.644 1.223 -1.949 1.108 -2.318 .612 " fill="#828884"/>
<path transform="matrix(1,0,0,-1,121.0872,13.762299)" d="M 0 0 C 8.47 .12 15.872 -1.986 21.772 -6.111 C 22.632 -6.712 23.391 -7.532 24.255 -8.212 C 25.114 -8.888 26.12 -9.467 26.738 -10.122 C 27.64 -11.079 28.266 -12.441 29.03 -13.56 C 30.191 -15.26 31.401 -16.81 32.086 -18.908 C 32.806 -21.115 32.986 -23.755 33.232 -26.547 C 33.454 -29.077 34.03 -31.466 33.805 -33.804 C 33.592 -36.01 33.202 -38.492 32.658 -40.68 C 31.251 -46.352 28.66 -50.434 25.592 -54.622 C 23.798 -57.071 21.442 -59.578 19.098 -61.307 C 15.501 -63.96 10.22 -66.869 5.157 -67.418 C -2.38 -68.237 -10.224 -66.491 -15.279 -63.79 C -16.848 -62.951 -18.337 -61.653 -19.863 -60.543 C -22.578 -58.567 -24.365 -57.341 -26.547 -55.004 C -30.125 -51.174 -31.843 -46.44 -33.041 -39.343 C -33.588 -36.104 -34.146 -32.714 -33.805 -29.794 C -33.573 -27.812 -32.645 -25.712 -31.895 -23.682 C -30.373 -19.56 -28.907 -16.608 -26.547 -13.369 C -23.238 -8.826 -19.277 -4.808 -13.56 -2.483 C -9.701 -.913 -5.356 -.075 0 0 M -7.258 -1.719 C -17.729 -3.906 -23.962 -9.368 -28.075 -17.762 C -29.738 -21.156 -31.346 -25.277 -31.513 -29.221 C -31.687 -33.312 -29.848 -37.533 -28.648 -40.68 C -27.583 -43.472 -26.888 -45.613 -25.592 -47.747 C -23.893 -50.547 -22.05 -51.871 -19.672 -54.049 C -19.007 -54.658 -18.485 -55.35 -17.762 -55.959 C -17.07 -56.542 -16.21 -57.045 -15.661 -57.678 C -14.584 -58.919 -14.085 -60.744 -12.987 -61.689 C -12.593 -62.029 -11.589 -62.444 -10.886 -62.835 C -5.322 -65.923 3.332 -67.602 9.931 -64.935 C 11.688 -64.226 13.665 -62.942 15.47 -61.689 C 19.047 -59.205 21.979 -56.403 24.637 -53.094 C 28.645 -48.106 31.829 -42.532 32.277 -34.378 C 32.535 -29.668 31.731 -24.92 30.94 -21.581 C 30.681 -20.487 30.653 -19.33 30.367 -18.526 C 29.999 -17.489 28.921 -15.917 28.457 -15.088 C 27.389 -13.18 26.048 -11.524 24.637 -10.313 C 23.543 -9.374 22.096 -8.608 20.627 -7.639 C 17.16 -5.354 12.975 -2.985 8.595 -1.719 C 5.812 -.914 1.6 -.824 -.764 -.955 C -3.196 -1.089 -5.124 -1.273 -7.258 -1.719 M -29.03 -46.219 C -28.013 -49.088 -27.133 -51.983 -25.21 -54.049 C -23.674 -55.7 -21.648 -57.243 -19.863 -58.633 C -18.011 -60.075 -16.023 -61.461 -13.942 -62.644 C -15.013 -60.662 -16.191 -58.905 -17.953 -57.487 C -18.627 -56.945 -19.563 -56.699 -20.245 -56.15 C -20.851 -55.662 -21.382 -54.834 -21.964 -54.24 C -22.623 -53.568 -23.308 -52.96 -23.873 -52.33 C -27.69 -48.077 -29.104 -42.704 -31.513 -37.051 C -31.026 -40.309 -30.037 -43.377 -29.03 -46.219 " fill="#828884"/>
<path transform="matrix(1,0,0,-1,118.2223,17.963913)" d="M 0 0 C .03 -.475 -.3 -.591 -.382 -.955 C -1.077 -.885 -1.459 -.504 -1.528 .191 C -.784 .342 -.538 .388 0 0 " fill="#828884"/>
<path transform="matrix(1,0,0,-1,126.2439,17.772706)" d="M 0 0 C .164 -.154 .113 -.523 .382 -.573 C .216 -1.672 -.555 -2.144 -1.528 -1.528 L -1.528 -.382 C -1.079 -.194 -.59 -.047 0 0 " fill="#828884"/>
<path transform="matrix(1,0,0,-1,122.0419,17.963913)" d="M 0 0 C .085 -.849 -.106 -1.421 -.955 -1.337 C -1.336 -.616 -1.051 .181 0 0 " fill="#828884"/>
<path transform="matrix(1,0,0,-1,129.1084,18.727707)" d="M 0 0 L 1.146 0 C 1.667 -.717 1.64 -2.005 .191 -1.719 C -.128 -1.402 .04 -.598 0 0 " fill="#828884"/>
<path transform="matrix(1,0,0,-1,134.6469,20.446702)" d="M 0 0 C .126 -.698 -.413 -.732 -.381 -1.337 C -1.192 -1.129 -2.157 -1.075 -2.292 -.191 C -1.725 .175 -.581 .757 0 0 " fill="#828884"/>
<path transform="matrix(1,0,0,-1,121.278,22.929306)" d="M 0 0 C .217 -.85 .161 -1.086 0 -2.101 C -.959 -2.352 -1.925 -2.595 -2.864 -2.865 C -2.615 -4.89 -2.469 -7.608 -4.965 -7.831 C -5.091 -7.574 -5.374 -7.475 -5.729 -7.449 C -5.971 -5.971 -5.809 -4.09 -6.302 -2.865 C -7.957 -2.674 -8.778 -1.648 -8.785 .191 C -6.509 1.26 -2.961 -.003 0 0 M -6.875 -.382 C -7.054 -.39 -7.569 .217 -7.448 -.573 C -6.724 -1.003 -5.936 -.752 -5.347 -.955 C -4.774 -1.862 -5.511 -5.175 -4.393 -6.112 C -4.085 -4.441 -4.782 -2.904 -4.011 -1.528 C -3.254 -1.393 -2.242 -1.515 -2.101 -.764 C -3.541 -.103 -5.632 -.329 -6.875 -.382 " fill="#828884"/>
<path transform="matrix(1,0,0,-1,126.6255,22.356614)" d="M 0 0 C .955 -2.148 2.561 -6.109 1.337 -8.594 C -.282 -9.209 -.546 -7.8 -1.528 -7.258 C -3.301 -7.391 -4.497 -9.383 -5.729 -7.448 C -4.961 -4.333 -3.757 -1.653 -1.718 .191 C -.95 .323 -.628 .008 0 0 M -1.337 -1.146 C -2.139 -3.154 -4.165 -4.925 -4.01 -7.258 C -2.983 -7.075 -2.983 -5.866 -2.101 -5.539 C -1.513 -5.843 -.537 -5.758 0 -6.111 C -.094 -6.97 .197 -7.443 1.146 -7.258 C 1.113 -4.872 .18 -3.385 -.19 -1.337 C -.64 -1.341 -.753 -1.008 -1.337 -1.146 " fill="#828884"/>
<path transform="matrix(1,0,0,-1,139.4216,22.738602)" d="M 0 0 C .051 -.688 -.353 -.92 -.382 -1.528 C -1.296 -1.615 -1.829 -1.321 -2.101 -.764 C -1.885 .025 -.629 .764 0 0 " fill="#828884"/>
<path transform="matrix(1,0,0,-1,133.6926,25.030213)" d="M 0 0 C -.036 -.162 .074 -.18 .19 -.191 C .316 -.893 .542 -1.5 0 -1.91 C -1.333 -1.397 -1.243 .54 -3.056 .573 C -3.37 -1.091 -3.415 -2.779 -3.247 -3.629 C -2.741 -2.862 -2.841 -1.488 -1.719 -1.337 C -.524 -1.606 -.324 -2.87 .573 -3.438 C 1.241 -2.425 .903 -1.295 1.337 .382 C .69 .455 1.036 -.464 .19 -.191 C .226 -.029 .117 -.011 0 0 C -.079 .843 .051 1.476 .382 1.91 L 2.292 1.91 C 2.941 .393 2.675 -2.396 2.864 -3.82 C 4.422 -3.51 7.799 -3.467 7.448 -5.539 C 7.105 -7.562 3.68 -6.361 2.673 -5.157 C 2.415 -5.534 2.289 -6.046 1.718 -6.112 C -.092 -6.075 -.41 -4.547 -1.146 -3.438 C -2.567 -3.738 -2.731 -6.092 -4.393 -5.539 C -4.837 -3.146 -5.554 1.806 -3.247 2.101 C -1.687 2.3 -1.427 .43 0 0 M 4.011 -4.584 C 4.044 -5.567 5.954 -6.162 6.303 -5.157 C 6.155 -4.406 4.684 -4.2 4.011 -4.584 " fill="#828884"/>
<path transform="matrix(1,0,0,-1,125.4799,24.457505)" d="M 0 0 C .309 .054 .329 -.18 .573 -.191 C .867 -.852 .741 -1.932 .764 -2.865 C .455 -3.152 -.645 -3.152 -.955 -2.865 C -1.097 -1.45 -.453 -.82 0 0 " fill="#828884"/>
<path transform="matrix(1,0,0,-1,142.6685,24.6483)" d="M 0 0 C .307 -.706 .278 -1.998 -.19 -2.483 C -.741 -2.46 -1.441 -2.587 -1.719 -2.292 C -2.115 -1.235 -1.103 .443 0 0 " fill="#828884"/>
<path transform="matrix(1,0,0,-1,109.4369,25.603409)" d="M 0 0 C -.41 -.354 -1.399 -.129 -2.101 -.191 C -2.579 -.725 -2.891 -2.249 -2.483 -3.056 C -.938 -2.118 -.024 -.549 1.91 0 C 2.352 -.424 1.845 -.744 1.91 -1.337 C -.304 -1.542 -.678 -3.587 -2.101 -4.583 C -2.347 -4.32 -2.931 -4.395 -3.438 -4.393 C -3.459 -2.271 -3.623 -.006 -2.483 .955 C -1.804 .488 -.026 1.12 0 0 " fill="#828884"/>
<path transform="matrix(1,0,0,-1,133.6926,25.030213)" d="M 0 0 C .117 -.011 .226 -.029 .19 -.191 C .074 -.18 -.036 -.162 0 0 " fill="#828884"/>
<path transform="matrix(1,0,0,-1,144.1963,28.468003)" d="M 0 0 C .801 .101 1.067 -.334 1.719 -.382 C 1.757 -1.12 1.726 -1.79 1.528 -2.292 C .261 -2.413 -.751 -2.279 -.764 -1.146 C -.314 -1.151 -.201 -.817 .382 -.955 C .3 -.591 -.03 -.475 0 0 " fill="#828884"/>
<path transform="matrix(1,0,0,-1,141.9046,33.62491)" d="M 0 0 C -.206 -5.666 -.15 -10.939 -.764 -16.616 C -6.85 -16.584 -1.05 -4.957 -5.348 -2.674 C -8.119 -1.943 -11.507 -1.83 -15.088 -1.91 C -15.241 -3.018 -14.409 -3.14 -14.324 -4.011 L -14.324 -8.403 C -13.525 -9.132 -11.818 -8.953 -10.504 -9.167 C -7.565 -12.055 -7.889 -19.112 -8.212 -24.637 C -9.354 -24.628 -10.748 -25.579 -11.459 -24.828 C -11.709 -24.006 -10.917 -24.224 -10.695 -23.873 C -10.521 -21.195 -11.504 -18.826 -11.077 -16.998 C -10.615 -18.01 -10.093 -19.287 -9.931 -20.627 C -9.806 -21.665 -10.512 -23.307 -9.358 -23.873 C -8.188 -23.466 -8.965 -22.388 -8.976 -21.581 C -9.023 -18.062 -9.165 -12.285 -11.268 -10.886 C -12.908 -9.795 -14.818 -10.746 -15.852 -8.786 C -15.787 -7.54 -15.708 -5.781 -15.852 -4.392 C -15.956 -3.383 -16.691 -1.943 -18.144 -2.292 C -18.93 -2.481 -20.017 -4.627 -19.672 -5.921 C -19.358 -7.095 -18.246 -6.738 -17.761 -7.639 L -17.761 -9.549 C -18.914 -10.007 -20.061 -10.057 -21.009 -10.695 C -22.497 -11.697 -22.448 -13.847 -23.682 -15.279 C -24.974 -16.778 -27.44 -16.422 -27.12 -18.716 C -25.639 -19.146 -23.041 -18.457 -22.918 -20.245 C -21.751 -18.674 -20.672 -17.016 -20.435 -14.515 C -21.382 -14.273 -21.955 -16.049 -22.918 -16.425 C -22.809 -15.404 -21.472 -12.736 -20.244 -12.796 C -19.543 -12.83 -18.734 -13.912 -18.716 -14.706 C -18.671 -16.713 -21.723 -18.772 -22.345 -21.391 C -22.913 -23.777 -22.464 -26.763 -22.154 -29.412 C -22.009 -30.653 -22.062 -32.211 -20.817 -32.468 C -19.874 -32.001 -19.858 -30.503 -19.672 -29.412 C -19.471 -28.236 -19.252 -26.912 -19.289 -25.783 C -19.334 -24.445 -20.153 -23.426 -19.672 -22.345 C -18.27 -22.52 -18.879 -23.931 -18.716 -24.828 C -18.287 -27.196 -17.362 -29.972 -16.807 -32.086 C -15.937 -32.115 -16.057 -32.244 -15.279 -32.086 C -15.026 -29.248 -15.339 -25.615 -15.47 -22.345 C -15.509 -21.353 -15.869 -20.199 -15.279 -19.672 C -15.008 -19.688 -14.738 -19.703 -14.706 -19.481 C -12.77 -21.717 -14.792 -26.893 -14.324 -29.794 C -14.201 -30.56 -13.346 -31.391 -13.178 -32.277 C -12.579 -35.432 -14.056 -37.889 -12.987 -39.725 C -12.194 -41.088 -10.367 -41.328 -8.785 -41.635 C -8.723 -42.525 -8.934 -43.141 -9.167 -43.736 C -14.166 -44.213 -18.163 -42.989 -22.536 -43.354 C -23.022 -43.395 -23.586 -43.674 -24.064 -43.927 C -26.003 -43.574 -28.107 -43.386 -30.176 -43.163 C -30.008 -42.473 -30.922 -41.888 -30.367 -41.444 C -30.093 -40.755 -29.137 -40.981 -28.457 -40.871 C -26.724 -40.591 -23.772 -40.285 -22.536 -38.579 C -23.181 -34.289 -22.829 -29.003 -22.918 -25.783 C -23.67 -25.238 -24.171 -26.122 -25.019 -25.974 C -25.632 -25.867 -25.903 -25.246 -26.547 -25.21 C -27.782 -25.142 -28.546 -25.903 -29.794 -26.165 C -30.39 -24.106 -29.579 -21.416 -29.985 -19.481 C -29.464 -18.664 -28.643 -18.149 -28.457 -16.998 C -26.529 -16.324 -24.395 -14.856 -23.491 -12.987 C -22.972 -11.912 -23.178 -10.684 -22.345 -9.931 C -21.452 -9.124 -20.241 -9.469 -19.099 -8.786 C -18.572 -7.804 -20.45 -7.771 -20.627 -6.875 C -20.427 -5.123 -20.623 -4.233 -20.627 -2.101 C -23.131 -1.834 -25.477 -1.449 -27.884 -1.337 C -32.979 -1.1 -38.199 -.708 -42.399 -2.674 C -42.932 -4.092 -42.809 -5.006 -42.972 -6.684 C -41.318 -6.697 -36.96 -6.595 -34.759 -7.257 C -34.574 -9.212 -35.74 -11.333 -36.669 -12.796 C -36.37 -13.907 -35.315 -14.413 -35.523 -16.425 C -35.677 -17.908 -36.151 -19.926 -36.669 -20.435 C -37.387 -20.453 -37.113 -19.479 -37.624 -19.29 C -38.973 -18.728 -40.972 -18.818 -42.59 -18.526 C -43.151 -16.943 -43.692 -16.458 -43.354 -15.088 C -43.095 -14.038 -41.996 -13.677 -41.826 -12.796 C -41.49 -11.055 -42.887 -9.895 -43.163 -8.021 C -44.569 -8.359 -44.511 -9.473 -46.219 -9.167 C -46.739 -8.078 -46.669 -6.554 -46.601 -5.157 C -46.453 -2.122 -45.919 1.639 -43.545 2.483 C -41.407 3.243 -37.556 2.153 -35.333 1.91 C -33.851 1.748 -32.394 2.173 -30.94 2.292 C -25.382 2.747 -19.05 .55 -13.56 .955 C -9.615 1.246 -6.016 .69 -3.056 .573 C -1.943 .529 -1.26 1.231 0 0 M -27.693 .382 C -28.321 .402 -28.912 .742 -29.603 .764 C -29.599 .764 -29.941 .388 -29.985 .382 C -30.204 .352 -30.267 .576 -30.558 .573 C -35.432 .529 -38.75 2.591 -43.545 1.337 C -45.41 -.285 -45.892 -4.498 -45.455 -7.257 C -43.794 -6.687 -44.122 -4.21 -43.736 -3.246 C -43.236 -1.996 -42.262 -.443 -41.253 -.191 C -38.679 .452 -34.257 .183 -30.558 .191 C -25.186 .203 -17.792 -1.99 -12.605 -.382 C -17.42 .295 -22.965 .231 -27.693 .382 M -8.976 -.191 C -10.351 -.387 -11.166 -.011 -12.223 -.382 C -11.735 -.373 -11.99 -.524 -12.032 -.764 C -12.31 -.881 -12.013 -.995 -12.032 -.764 C -10.977 -.59 -10.417 -.876 -9.74 -.573 C -10.011 -.589 -10.281 -.604 -10.313 -.382 C -9.73 -.244 -9.617 -.577 -9.167 -.573 C -9.131 -.79 -8.976 -.679 -8.976 -.573 C -5.617 -.735 -3.285 -1.112 -2.673 -4.011 C -2.171 -6.391 -3.139 -9.724 -2.864 -12.223 C -2.775 -13.038 -2.673 -14.344 -1.719 -14.706 C -1.128 -12.076 -1.391 -7.365 -1.337 -3.628 C -1.32 -2.475 -.913 -1.409 -1.528 -.573 C -3.724 .423 -6.188 -.182 -8.785 -.191 C -8.821 .026 -8.977 -.085 -8.976 -.191 M -41.635 -17.38 C -40.673 -17.945 -39.334 -18.134 -37.815 -18.144 C -37.807 -17.375 -37.037 -16.767 -37.051 -16.043 C -37.072 -14.981 -37.858 -14.542 -38.388 -13.751 C -37.868 -11.639 -38.811 -10.872 -38.579 -8.021 C -38.889 -7.631 -39.988 -8.03 -40.298 -7.639 C -39.703 -11.38 -42.07 -13.812 -41.635 -17.38 M -41.444 -9.931 C -41.09 -9.521 -41.315 -8.532 -41.253 -7.83 L -42.017 -7.83 C -42.362 -8.575 -41.878 -9.411 -41.444 -9.931 M -37.051 -8.212 C -37.237 -8.537 -37.263 -9.979 -36.479 -9.931 C -36.532 -9.114 -35.895 -8.987 -36.097 -8.021 C -36.539 -7.961 -36.83 -8.052 -37.051 -8.212 M -28.648 -24.637 C -27.437 -23.664 -25.756 -24.208 -24.446 -24.064 C -23.881 -23.207 -23.767 -21.526 -24.255 -20.627 C -25.55 -19.884 -28.039 -20.336 -28.839 -19.099 C -29.157 -20.592 -29.212 -23.397 -28.648 -24.637 M -18.908 -32.277 C -19.148 -35.605 -21.085 -38.787 -19.863 -41.444 C -12.639 -40.683 -18.168 -33.302 -18.335 -29.03 C -18.375 -28.816 -18.546 -28.732 -18.716 -28.648 C -19.091 -29.652 -18.821 -31.071 -18.908 -32.277 M -14.706 -33.996 C -14.95 -33.985 -14.971 -33.751 -15.279 -33.805 C -15.311 -34.027 -15.581 -34.012 -15.852 -33.996 C -15.54 -35.583 -15.282 -37.066 -14.706 -38.77 C -15.363 -39.685 -15.154 -40.331 -15.279 -41.635 C -14.5 -41.493 -14.621 -42.251 -13.751 -42.017 C -13.5 -39.366 -14.606 -36.433 -14.706 -33.996 M -21.391 -38.388 C -21.172 -37.112 -20.288 -35.585 -20.627 -34.378 L -21.199 -34.378 C -21.674 -35.487 -21.855 -37.355 -21.391 -38.388 M -23.682 -41.826 C -23.375 -41.733 -21.844 -41.944 -21.391 -41.444 C -21.305 -39.122 -24.163 -40.745 -23.682 -41.826 " fill="#828884"/>
<path transform="matrix(1,0,0,-1,146.6793,33.242609)" d="M 0 0 C .41 -.228 1.067 -.206 1.337 -.573 C 1.303 -1.43 1.006 -2.025 .574 -2.483 C .21 -2.401 .093 -2.071 -.382 -2.101 C -.611 -1.505 -.344 -.567 0 0 " fill="#828884"/>
<path transform="matrix(1,0,0,-1,132.9288,33.815805)" d="M 0 0 C -.001 .106 .155 .217 .19 0 Z " fill="#828884"/>
<path transform="matrix(1,0,0,-1,132.7375,34.19771)" d="M 0 0 L .191 0 C .191 -.106 .036 -.217 0 0 " fill="#828884"/>
<path transform="matrix(1,0,0,-1,129.8722,34.38881)" d="M 0 0 C .02 -.231 -.277 -.117 0 0 " fill="#828884"/>
<path transform="matrix(1,0,0,-1,148.971,38.399606)" d="M 0 0 C .379 -.861 .339 -1.759 0 -2.674 C -1.281 -2.81 -2.125 -2.507 -2.482 -1.719 C -2.561 -1.259 -2.134 -1.304 -2.292 -.764 C -.783 -1.447 -1.305 .043 0 0 " fill="#828884"/>
<path transform="matrix(1,0,0,-1,148.3983,42.98311)" d="M 0 0 C 2.604 .188 2.059 -4.259 -.764 -3.438 C -1.14 -2.922 -.877 -1.769 -.955 -.955 C -.359 -.975 -.167 -.784 0 0 " fill="#828884"/>
<path transform="matrix(1,0,0,-1,130.6362,47.566705)" d="M 0 0 C -.391 -.296 -1.71 -.296 -2.101 0 L -2.101 1.146 C -1.15 1.615 .361 1.777 0 0 " fill="#828884"/>
<path transform="matrix(1,0,0,-1,149.3534,49.285608)" d="M 0 0 L 0 -2.292 C -.657 -2.59 -1.462 -2.741 -2.483 -2.674 C -2.737 -2.101 -2.677 -1.213 -2.674 -.382 C -1.929 .288 -1.205 .047 0 0 " fill="#828884"/>
<path transform="matrix(1,0,0,-1,104.8534,54.442308)" d="M 0 0 C -.493 -4.67 -.846 -9.122 -1.528 -13.178 C -2.341 -13.291 -2.791 -13.041 -3.438 -12.987 C -3.626 -10.795 -4.159 -7.874 -3.438 -5.921 C -2.811 -5.465 -1.859 -5.335 -1.528 -4.584 C -1.472 -2.489 -2.868 1.283 0 0 M -2.292 -10.123 C -2.306 -8.981 -1.055 -7.202 -2.483 -6.876 C -2.826 -7.787 -2.718 -9.397 -2.292 -10.123 " fill="#828884"/>
<path transform="matrix(1,0,0,-1,148.2071,54.633409)" d="M 0 0 L 0 -1.528 C -.615 -1.867 -1.135 -2.303 -2.101 -2.292 C -2.058 -1.485 -2.395 -1.058 -2.483 -.382 C -1.92 .161 -.792 .758 0 0 " fill="#828884"/>
<path transform="matrix(1,0,0,-1,145.1514,61.89071)" d="M 0 0 C -1.02 .189 -1.933 .486 -1.719 1.91 C -1.213 2.193 -.124 2.611 .382 2.292 C .363 1.419 .537 .354 0 0 " fill="#828884"/>
<path transform="matrix(1,0,0,-1,143.0508,63.418909)" d="M 0 0 C .369 -.465 .183 -1.598 0 -2.101 C -.448 -2.481 -1.215 -2.541 -2.101 -2.483 C -2 -1.151 -1.386 .578 0 0 " fill="#828884"/>
<path transform="matrix(1,0,0,-1,140.3767,67.2385)" d="M 0 0 C .366 -1.616 -.774 -2.608 -2.101 -1.91 C -2.043 -.631 -1.59 .253 0 0 " fill="#828884"/>
<path transform="matrix(1,0,0,-1,137.1299,70.10341)" d="M 0 0 C .1 -1.182 -.409 -1.755 -1.337 -1.91 C -2.338 -1.061 -1.414 .982 0 0 " fill="#828884"/>
<path transform="matrix(1,0,0,-1,133.8831,72.20441)" d="M 0 0 C 1.144 .072 1.119 -1.534 .574 -2.101 L -.764 -2.101 C -.769 -1.14 .005 -.96 0 0 " fill="#828884"/>
</g>
</g>
</svg>
