<?xml version="1.0" encoding="UTF-8"?><svg xmlns="http://www.w3.org/2000/svg" xmlns:xlink="http://www.w3.org/1999/xlink" contentScriptType="text/ecmascript" width="1500" zoomAndPan="magnify" contentStyleType="text/css" viewBox="0 0 1500 374.999991" height="374.999991" preserveAspectRatio="xMidYMid meet" version="1.0"><path fill="rgb(50.979614%, 53.329468%, 51.759338%)" d="M 160.605469 54.304688 C 193.957031 53.832031 223.101562 62.125 246.332031 78.371094 C 249.71875 80.738281 252.707031 83.96875 256.109375 86.648438 C 259.492188 89.308594 263.453125 91.589844 265.886719 94.171875 C 269.4375 97.9375 271.90625 103.304688 274.914062 107.710938 C 279.484375 114.40625 284.25 120.511719 286.945312 128.773438 C 289.78125 137.464844 290.488281 147.863281 291.457031 158.859375 C 292.332031 168.824219 294.601562 178.234375 293.714844 187.445312 C 292.875 196.132812 291.339844 205.90625 289.199219 214.523438 C 283.65625 236.863281 273.457031 252.941406 261.375 269.4375 C 254.3125 279.082031 245.035156 288.957031 235.804688 295.765625 C 221.640625 306.214844 200.847656 317.671875 180.910156 319.835938 C 151.230469 323.058594 120.34375 316.183594 100.441406 305.546875 C 94.261719 302.242188 88.398438 297.128906 82.390625 292.757812 C 71.699219 284.972656 64.664062 280.144531 56.070312 270.941406 C 41.984375 255.855469 35.21875 237.210938 30.5 209.257812 C 28.347656 196.503906 26.148438 183.148438 27.492188 171.648438 C 28.40625 163.84375 32.058594 155.574219 35.011719 147.578125 C 41.007812 131.34375 46.777344 119.714844 56.070312 106.957031 C 69.101562 89.066406 84.699219 73.242188 107.210938 64.082031 C 122.40625 57.898438 139.515625 54.597656 160.605469 54.304688 M 132.023438 61.074219 C 90.792969 69.6875 66.25 91.199219 50.054688 124.261719 C 43.507812 137.628906 37.175781 153.859375 36.515625 169.394531 C 35.832031 185.503906 43.074219 202.128906 47.796875 214.523438 C 51.992188 225.523438 54.730469 233.953125 59.832031 242.359375 C 66.523438 253.386719 73.777344 258.601562 83.144531 267.179688 C 85.761719 269.578125 87.816406 272.304688 90.664062 274.703125 C 93.386719 277 96.773438 278.980469 98.9375 281.472656 C 103.175781 286.359375 105.140625 293.546875 109.464844 297.269531 C 111.015625 298.609375 114.96875 300.246094 117.738281 301.785156 C 139.648438 313.945312 173.722656 320.558594 199.707031 310.054688 C 206.625 307.261719 214.410156 302.207031 221.519531 297.269531 C 235.601562 287.488281 247.148438 276.453125 257.613281 263.417969 C 273.398438 243.773438 285.933594 221.820312 287.699219 189.703125 C 288.714844 171.152344 285.546875 152.453125 282.433594 139.300781 C 281.414062 134.992188 281.304688 130.4375 280.175781 127.269531 C 278.726562 123.183594 274.484375 116.992188 272.65625 113.730469 C 268.449219 106.214844 263.171875 99.691406 257.613281 94.921875 C 253.308594 91.222656 247.609375 88.207031 241.824219 84.390625 C 228.171875 75.390625 211.695312 66.058594 194.449219 61.074219 C 183.488281 57.902344 166.902344 57.550781 157.59375 58.066406 C 148.019531 58.59375 140.425781 59.316406 132.023438 61.074219 M 46.292969 236.339844 C 50.300781 247.640625 53.765625 259.042969 61.335938 267.179688 C 67.382812 273.683594 75.363281 279.757812 82.390625 285.234375 C 89.683594 290.914062 97.511719 296.371094 105.707031 301.03125 C 101.488281 293.226562 96.851562 286.304688 89.910156 280.722656 C 87.257812 278.585938 83.570312 277.617188 80.886719 275.453125 C 78.5 273.53125 76.410156 270.273438 74.117188 267.933594 C 71.523438 265.285156 68.824219 262.890625 66.601562 260.410156 C 51.570312 243.660156 46.003906 222.496094 36.515625 200.230469 C 38.433594 213.0625 42.328125 225.148438 46.292969 236.339844 " fill-opacity="1" fill-rule="nonzero"/><path fill="rgb(50.979614%, 53.329468%, 51.759338%)" d="M 149.324219 70.855469 C 149.441406 72.722656 148.140625 73.179688 147.816406 74.613281 C 145.082031 74.339844 143.578125 72.839844 143.304688 70.101562 C 146.234375 69.507812 147.203125 69.324219 149.324219 70.855469 " fill-opacity="1" fill-rule="nonzero"/><path fill="rgb(50.979614%, 53.329468%, 51.759338%)" d="M 180.910156 70.101562 C 181.554688 70.707031 181.355469 72.160156 182.414062 72.359375 C 181.761719 76.6875 178.722656 78.546875 174.894531 76.121094 L 174.894531 71.605469 C 176.660156 70.867188 178.585938 70.285156 180.910156 70.101562 " fill-opacity="1" fill-rule="nonzero"/><path fill="rgb(50.979614%, 53.329468%, 51.759338%)" d="M 164.363281 70.855469 C 164.699219 74.199219 163.945312 76.449219 160.605469 76.121094 C 159.101562 73.28125 160.226562 70.140625 164.363281 70.855469 " fill-opacity="1" fill-rule="nonzero"/><path fill="rgb(50.979614%, 53.329468%, 51.759338%)" d="M 192.1875 73.863281 L 196.699219 73.863281 C 198.75 76.6875 198.644531 81.757812 192.9375 80.632812 C 191.683594 79.382812 192.34375 76.21875 192.1875 73.863281 " fill-opacity="1" fill-rule="nonzero"/><path fill="rgb(50.979614%, 53.329468%, 51.759338%)" d="M 213.996094 80.632812 C 214.492188 83.382812 212.371094 83.515625 212.496094 85.898438 C 209.304688 85.078125 205.503906 84.867188 204.972656 81.386719 C 207.207031 79.945312 211.710938 77.652344 213.996094 80.632812 " fill-opacity="1" fill-rule="nonzero"/><path fill="rgb(50.979614%, 53.329468%, 51.759338%)" d="M 161.355469 90.414062 C 162.210938 93.761719 161.988281 94.691406 161.355469 98.6875 C 157.578125 99.675781 153.777344 100.632812 150.078125 101.695312 C 151.058594 109.671875 151.632812 120.378906 141.804688 121.253906 C 141.308594 120.242188 140.195312 119.851562 138.796875 119.75 C 137.84375 113.929688 138.480469 106.519531 136.539062 101.695312 C 130.023438 100.945312 126.792969 96.902344 126.765625 89.660156 C 135.726562 85.449219 149.695312 90.425781 161.355469 90.414062 M 134.285156 91.917969 C 133.578125 91.949219 131.550781 89.558594 132.027344 92.667969 C 134.878906 94.363281 137.980469 93.375 140.300781 94.175781 C 142.558594 97.746094 139.65625 110.792969 144.058594 114.484375 C 145.269531 107.902344 142.527344 101.851562 145.5625 96.429688 C 148.542969 95.898438 152.527344 96.378906 153.082031 93.421875 C 147.414062 90.816406 139.179688 91.707031 134.285156 91.917969 " fill-opacity="1" fill-rule="nonzero"/><path fill="rgb(50.979614%, 53.329468%, 51.759338%)" d="M 182.414062 88.15625 C 186.175781 96.617188 192.5 112.214844 187.679688 122.003906 C 181.304688 124.425781 180.265625 118.875 176.398438 116.742188 C 169.414062 117.265625 164.707031 125.113281 159.855469 117.492188 C 162.878906 105.222656 167.621094 94.667969 175.648438 87.402344 C 178.671875 86.882812 179.941406 88.125 182.414062 88.15625 M 177.148438 92.667969 C 173.992188 100.578125 166.015625 107.554688 166.625 116.742188 C 170.667969 116.019531 170.667969 111.257812 174.140625 109.972656 C 176.457031 111.167969 180.300781 110.835938 182.414062 112.222656 C 182.042969 115.609375 183.191406 117.46875 186.925781 116.742188 C 186.796875 107.34375 183.121094 101.488281 181.664062 93.421875 C 179.894531 93.4375 179.449219 92.125 177.148438 92.667969 " fill-opacity="1" fill-rule="nonzero"/><path fill="rgb(50.979614%, 53.329468%, 51.759338%)" d="M 232.800781 89.660156 C 233 92.371094 231.410156 93.285156 231.296875 95.679688 C 227.695312 96.019531 225.597656 94.863281 224.527344 92.667969 C 225.378906 89.5625 230.324219 86.652344 232.800781 89.660156 " fill-opacity="1" fill-rule="nonzero"/><path fill="rgb(50.979614%, 53.329468%, 51.759338%)" d="M 210.242188 98.683594 C 210.097656 99.320312 210.53125 99.390625 210.988281 99.4375 C 211.484375 102.199219 212.375 104.589844 210.242188 106.207031 C 204.992188 104.1875 205.347656 96.558594 198.207031 96.425781 C 196.972656 102.980469 196.792969 109.628906 197.457031 112.976562 C 199.449219 109.957031 199.054688 104.542969 203.472656 103.949219 C 208.179688 105.007812 208.964844 109.988281 212.496094 112.222656 C 215.128906 108.234375 213.796875 103.785156 215.507812 97.179688 C 212.957031 96.890625 214.320312 100.511719 210.988281 99.4375 C 211.132812 98.796875 210.703125 98.726562 210.242188 98.683594 C 209.929688 95.363281 210.441406 92.871094 211.746094 91.160156 L 219.265625 91.160156 C 221.820312 97.136719 220.773438 108.121094 221.519531 113.730469 C 227.652344 112.507812 240.949219 112.339844 239.570312 120.5 C 238.21875 128.46875 224.730469 123.738281 220.765625 118.996094 C 219.75 120.480469 219.253906 122.496094 217.007812 122.757812 C 209.878906 122.609375 208.625 116.59375 205.730469 112.222656 C 200.132812 113.40625 199.488281 122.675781 192.941406 120.5 C 191.195312 111.074219 188.371094 91.570312 197.457031 90.410156 C 203.597656 89.625 204.621094 96.988281 210.242188 98.683594 M 226.035156 116.738281 C 226.164062 120.609375 233.6875 122.953125 235.058594 118.996094 C 234.476562 116.035156 228.683594 115.226562 226.035156 116.738281 " fill-opacity="1" fill-rule="nonzero"/><path fill="rgb(50.979614%, 53.329468%, 51.759338%)" d="M 177.902344 96.429688 C 179.117188 96.21875 179.195312 97.140625 180.15625 97.183594 C 181.316406 99.785156 180.820312 104.039062 180.910156 107.714844 C 179.691406 108.84375 175.363281 108.84375 174.140625 107.714844 C 173.582031 102.140625 176.117188 99.660156 177.902344 96.429688 " fill-opacity="1" fill-rule="nonzero"/><path fill="rgb(50.979614%, 53.329468%, 51.759338%)" d="M 245.582031 97.179688 C 246.789062 99.960938 246.675781 105.046875 244.832031 106.957031 C 242.664062 106.867188 239.90625 107.367188 238.8125 106.207031 C 237.253906 102.042969 241.238281 95.433594 245.582031 97.179688 " fill-opacity="1" fill-rule="nonzero"/><path fill="rgb(50.979614%, 53.329468%, 51.759338%)" d="M 114.730469 100.941406 C 113.117188 102.335938 109.222656 101.449219 106.457031 101.691406 C 104.574219 103.796875 103.347656 109.796875 104.953125 112.976562 C 111.035156 109.28125 114.636719 103.101562 122.25 100.941406 C 123.992188 102.609375 121.996094 103.871094 122.25 106.207031 C 113.535156 107.011719 112.0625 115.066406 106.457031 118.992188 C 105.488281 117.953125 103.1875 118.25 101.191406 118.242188 C 101.109375 109.886719 100.464844 100.964844 104.953125 97.179688 C 107.625 99.019531 114.628906 96.527344 114.730469 100.941406 " fill-opacity="1" fill-rule="nonzero"/><path fill="rgb(50.979614%, 53.329468%, 51.759338%)" d="M 210.242188 98.683594 C 210.703125 98.726562 211.132812 98.796875 210.988281 99.4375 C 210.53125 99.390625 210.097656 99.320312 210.242188 98.683594 " fill-opacity="1" fill-rule="nonzero"/><path fill="rgb(50.979614%, 53.329468%, 51.759338%)" d="M 251.597656 112.222656 C 254.753906 111.828125 255.800781 113.539062 258.367188 113.730469 C 258.515625 116.636719 258.394531 119.273438 257.613281 121.25 C 252.625 121.726562 248.640625 121.199219 248.589844 116.738281 C 250.363281 116.757812 250.804688 115.441406 253.101562 115.984375 C 252.78125 114.550781 251.480469 114.09375 251.597656 112.222656 " fill-opacity="1" fill-rule="nonzero"/><path fill="rgb(50.979614%, 53.329468%, 51.759338%)" d="M 242.578125 132.535156 C 241.765625 154.851562 241.988281 175.621094 239.570312 197.980469 C 215.605469 197.851562 238.441406 152.058594 221.519531 143.066406 C 210.609375 140.1875 197.265625 139.742188 183.167969 140.058594 C 182.5625 144.421875 185.839844 144.902344 186.175781 148.332031 L 186.175781 165.632812 C 189.320312 168.503906 196.042969 167.796875 201.214844 168.640625 C 212.789062 180.015625 211.511719 207.808594 210.242188 229.570312 C 205.746094 229.535156 200.253906 233.28125 197.457031 230.324219 C 196.472656 227.085938 199.589844 227.945312 200.464844 226.5625 C 201.148438 216.015625 197.277344 206.683594 198.960938 199.484375 C 200.777344 203.46875 202.835938 208.5 203.472656 213.777344 C 203.964844 217.863281 201.183594 224.332031 205.730469 226.5625 C 210.335938 224.957031 207.277344 220.710938 207.234375 217.535156 C 207.046875 203.675781 206.488281 180.921875 198.207031 175.410156 C 191.75 171.113281 184.230469 174.859375 180.15625 167.140625 C 180.414062 162.234375 180.726562 155.304688 180.15625 149.832031 C 179.75 145.859375 176.855469 140.1875 171.132812 141.5625 C 168.039062 142.308594 163.757812 150.757812 165.117188 155.855469 C 166.351562 160.480469 170.730469 159.074219 172.640625 162.621094 L 172.640625 170.144531 C 168.101562 171.949219 163.585938 172.144531 159.851562 174.660156 C 153.992188 178.605469 154.183594 187.074219 149.328125 192.714844 C 144.238281 198.617188 134.527344 197.214844 135.789062 206.25 C 141.621094 207.945312 151.851562 205.230469 152.335938 212.273438 C 156.929688 206.085938 161.179688 199.554688 162.113281 189.703125 C 158.382812 188.75 156.125 195.746094 152.335938 197.226562 C 152.765625 193.207031 158.027344 182.699219 162.863281 182.933594 C 165.625 183.066406 168.808594 187.328125 168.878906 190.457031 C 169.058594 198.359375 157.039062 206.46875 154.589844 216.785156 C 152.355469 226.183594 154.121094 237.945312 155.34375 248.378906 C 155.914062 253.265625 155.707031 259.402344 160.609375 260.414062 C 164.320312 258.574219 164.382812 252.675781 165.117188 248.378906 C 165.90625 243.746094 166.769531 238.53125 166.625 234.085938 C 166.445312 228.8125 163.222656 224.800781 165.117188 220.542969 C 170.636719 221.234375 168.238281 226.789062 168.878906 230.324219 C 170.570312 239.648438 174.210938 250.582031 176.398438 258.910156 C 179.824219 259.023438 179.351562 259.53125 182.414062 258.910156 C 183.410156 247.730469 182.179688 233.421875 181.660156 220.542969 C 181.507812 216.636719 180.089844 212.089844 182.414062 210.015625 C 183.480469 210.078125 184.542969 210.136719 184.671875 209.261719 C 192.292969 218.070312 184.332031 238.457031 186.175781 249.882812 C 186.660156 252.898438 190.027344 256.171875 190.6875 259.660156 C 193.046875 272.085938 187.230469 281.765625 191.4375 288.996094 C 194.5625 294.363281 201.753906 295.308594 207.984375 296.519531 C 208.230469 300.023438 207.398438 302.449219 206.480469 304.792969 C 186.796875 306.671875 171.058594 301.851562 153.839844 303.289062 C 151.925781 303.449219 149.703125 304.550781 147.820312 305.546875 C 140.1875 304.15625 131.902344 303.414062 123.753906 302.535156 C 124.417969 299.820312 120.816406 297.515625 123.003906 295.765625 C 124.082031 293.050781 127.847656 293.941406 130.523438 293.507812 C 137.347656 292.40625 148.972656 291.203125 153.839844 284.480469 C 151.300781 267.585938 152.683594 246.765625 152.335938 234.085938 C 149.375 231.9375 147.402344 235.417969 144.0625 234.835938 C 141.648438 234.414062 140.582031 231.96875 138.046875 231.828125 C 133.183594 231.558594 130.171875 234.558594 125.257812 235.589844 C 122.914062 227.480469 126.105469 216.882812 124.507812 209.261719 C 126.558594 206.046875 129.792969 204.015625 130.523438 199.484375 C 138.117188 196.828125 146.519531 191.046875 150.078125 183.6875 C 152.121094 179.453125 151.3125 174.617188 154.589844 171.648438 C 158.105469 168.472656 162.875 169.828125 167.371094 167.140625 C 169.449219 163.273438 162.050781 163.140625 161.355469 159.613281 C 162.144531 152.714844 161.371094 149.207031 161.355469 140.8125 C 151.496094 139.757812 142.257812 138.242188 132.78125 137.800781 C 112.71875 136.867188 92.164062 135.324219 75.625 143.066406 C 73.527344 148.652344 74.011719 152.253906 73.371094 158.859375 C 79.882812 158.914062 97.042969 158.511719 105.710938 161.117188 C 106.4375 168.816406 101.847656 177.171875 98.1875 182.933594 C 99.367188 187.308594 103.519531 189.300781 102.699219 197.226562 C 102.09375 203.066406 100.226562 211.015625 98.1875 213.019531 C 95.359375 213.089844 96.441406 209.253906 94.429688 208.511719 C 89.117188 206.296875 81.246094 206.652344 74.875 205.5 C 72.664062 199.265625 70.535156 197.355469 71.867188 191.960938 C 72.886719 187.824219 77.210938 186.402344 77.882812 182.933594 C 79.207031 176.078125 73.703125 171.507812 72.617188 164.128906 C 67.082031 165.457031 67.308594 169.847656 60.585938 168.640625 C 58.535156 164.351562 58.8125 158.347656 59.078125 152.847656 C 59.664062 140.894531 61.765625 126.082031 71.113281 122.757812 C 79.53125 119.761719 94.695312 124.054688 103.449219 125.011719 C 109.285156 125.652344 115.023438 123.976562 120.746094 123.507812 C 142.632812 121.714844 167.566406 130.371094 189.183594 128.773438 C 204.714844 127.628906 218.886719 129.816406 230.542969 130.277344 C 234.925781 130.453125 237.617188 127.6875 242.578125 132.535156 M 133.53125 131.03125 C 131.058594 130.953125 128.734375 129.613281 126.011719 129.527344 C 126.027344 129.527344 124.679688 131.007812 124.507812 131.03125 C 123.644531 131.148438 123.398438 130.265625 122.25 130.277344 C 103.058594 130.453125 89.996094 122.332031 71.113281 127.269531 C 63.769531 133.65625 61.871094 150.25 63.59375 161.117188 C 70.132812 158.871094 68.839844 149.117188 70.359375 145.320312 C 72.328125 140.398438 76.164062 134.28125 80.136719 133.289062 C 90.273438 130.753906 107.6875 131.816406 122.25 131.785156 C 143.402344 131.734375 172.519531 140.375 192.941406 134.039062 C 173.984375 131.375 152.148438 131.625 133.53125 131.03125 M 207.234375 133.289062 C 201.820312 134.058594 198.609375 132.578125 194.449219 134.039062 C 196.367188 134.003906 195.363281 134.597656 195.199219 135.542969 C 194.105469 136.003906 195.273438 136.453125 195.199219 135.542969 C 199.355469 134.859375 201.558594 135.984375 204.222656 134.792969 C 203.15625 134.855469 202.09375 134.914062 201.96875 134.039062 C 204.265625 133.496094 204.707031 134.808594 206.480469 134.792969 C 206.621094 135.648438 207.234375 135.210938 207.234375 134.792969 C 220.460938 135.429688 229.640625 136.914062 232.050781 148.332031 C 234.027344 157.707031 230.214844 170.835938 231.300781 180.675781 C 231.648438 183.886719 232.050781 189.03125 235.808594 190.457031 C 238.136719 180.097656 237.101562 161.542969 237.3125 146.824219 C 237.378906 142.285156 238.980469 138.085938 236.558594 134.792969 C 227.914062 130.871094 218.210938 133.253906 207.984375 133.289062 C 207.84375 132.433594 207.230469 132.871094 207.234375 133.289062 M 78.632812 200.988281 C 82.421875 203.214844 87.695312 203.957031 93.675781 203.996094 C 93.707031 200.96875 96.738281 198.574219 96.683594 195.722656 C 96.601562 191.539062 93.507812 189.808594 91.417969 186.695312 C 93.46875 178.375 89.753906 175.355469 90.667969 164.128906 C 89.445312 162.589844 85.121094 164.164062 83.898438 162.621094 C 86.242188 177.355469 76.921875 186.933594 78.632812 200.988281 M 79.386719 171.648438 C 80.78125 170.035156 79.894531 166.140625 80.136719 163.375 L 77.128906 163.375 C 75.773438 166.308594 77.675781 169.601562 79.386719 171.648438 M 96.683594 164.878906 C 95.953125 166.160156 95.847656 171.839844 98.9375 171.648438 C 98.726562 168.433594 101.234375 167.933594 100.441406 164.128906 C 98.699219 163.890625 97.554688 164.25 96.683594 164.878906 M 129.773438 229.570312 C 134.539062 225.738281 141.160156 227.878906 146.316406 227.3125 C 148.542969 223.9375 148.992188 217.316406 147.070312 213.777344 C 141.972656 210.851562 132.171875 212.628906 129.019531 207.757812 C 127.769531 213.640625 127.550781 224.6875 129.773438 229.570312 M 168.125 259.660156 C 167.179688 272.769531 159.550781 285.300781 164.363281 295.765625 C 192.808594 292.769531 171.039062 263.699219 170.378906 246.871094 C 170.222656 246.03125 169.550781 245.699219 168.878906 245.367188 C 167.402344 249.324219 168.46875 254.910156 168.125 259.660156 M 184.671875 266.429688 C 183.710938 266.386719 183.625 265.464844 182.414062 265.679688 C 182.289062 266.554688 181.226562 266.496094 180.15625 266.429688 C 181.386719 272.683594 182.402344 278.523438 184.671875 285.234375 C 182.082031 288.839844 182.90625 291.382812 182.414062 296.519531 C 185.480469 295.960938 185.003906 298.945312 188.429688 298.023438 C 189.417969 287.582031 185.0625 276.03125 184.671875 266.429688 M 158.347656 283.730469 C 159.210938 278.703125 162.691406 272.691406 161.355469 267.9375 L 159.101562 267.9375 C 157.234375 272.304688 156.519531 279.660156 158.347656 283.730469 M 149.328125 297.269531 C 150.535156 296.90625 156.5625 297.734375 158.347656 295.765625 C 158.6875 286.621094 147.433594 293.011719 149.328125 297.269531 " fill-opacity="1" fill-rule="nonzero"/><path fill="rgb(50.979614%, 53.329468%, 51.759338%)" d="M 261.378906 131.03125 C 262.992188 131.929688 265.582031 131.84375 266.644531 133.289062 C 266.511719 136.664062 265.339844 139.007812 263.640625 140.8125 C 262.207031 140.488281 261.746094 139.1875 259.875 139.304688 C 258.972656 136.957031 260.023438 133.265625 261.378906 131.03125 " fill-opacity="1" fill-rule="nonzero"/><path fill="rgb(50.979614%, 53.329468%, 51.759338%)" d="M 207.234375 133.289062 C 207.230469 132.871094 207.84375 132.433594 207.980469 133.289062 Z M 207.234375 133.289062 " fill-opacity="1" fill-rule="nonzero"/><path fill="rgb(50.979614%, 53.329468%, 51.759338%)" d="M 206.480469 134.792969 L 207.234375 134.792969 C 207.234375 135.210938 206.621094 135.648438 206.480469 134.792969 " fill-opacity="1" fill-rule="nonzero"/><path fill="rgb(50.979614%, 53.329468%, 51.759338%)" d="M 195.195312 135.542969 C 195.273438 136.453125 194.105469 136.003906 195.195312 135.542969 " fill-opacity="1" fill-rule="nonzero"/><path fill="rgb(50.979614%, 53.329468%, 51.759338%)" d="M 270.398438 151.34375 C 271.894531 154.734375 271.734375 158.269531 270.398438 161.875 C 265.355469 162.410156 262.03125 161.214844 260.628906 158.113281 C 260.316406 156.300781 261.996094 156.476562 261.375 154.351562 C 267.316406 157.042969 265.261719 151.171875 270.398438 151.34375 " fill-opacity="1" fill-rule="nonzero"/><path fill="rgb(50.979614%, 53.329468%, 51.759338%)" d="M 268.144531 169.394531 C 278.398438 168.652344 276.25 186.167969 265.136719 182.933594 C 263.65625 180.902344 264.691406 176.359375 264.382812 173.152344 C 266.730469 173.234375 267.488281 172.480469 268.144531 169.394531 " fill-opacity="1" fill-rule="nonzero"/><path fill="rgb(50.979614%, 53.329468%, 51.759338%)" d="M 198.203125 187.449219 C 196.664062 188.613281 191.46875 188.613281 189.929688 187.449219 L 189.929688 182.933594 C 193.675781 181.085938 199.625 180.449219 198.203125 187.449219 " fill-opacity="1" fill-rule="nonzero"/><path fill="rgb(50.979614%, 53.329468%, 51.759338%)" d="M 271.90625 194.21875 L 271.90625 203.246094 C 269.316406 204.417969 266.148438 205.011719 262.128906 204.75 C 261.128906 202.492188 261.363281 198.996094 261.375 195.722656 C 264.308594 193.082031 267.160156 194.03125 271.90625 194.21875 " fill-opacity="1" fill-rule="nonzero"/><path fill="rgb(50.979614%, 53.329468%, 51.759338%)" d="M 96.679688 214.523438 C 94.738281 232.917969 93.347656 250.453125 90.664062 266.425781 C 87.460938 266.871094 85.691406 265.886719 83.144531 265.675781 C 82.402344 257.042969 80.304688 245.539062 83.144531 237.84375 C 85.613281 236.050781 89.359375 235.539062 90.664062 232.578125 C 90.882812 224.328125 85.386719 209.472656 96.679688 214.523438 M 87.65625 254.394531 C 87.601562 249.898438 92.527344 242.890625 86.902344 241.605469 C 85.550781 245.195312 85.976562 251.535156 87.65625 254.394531 " fill-opacity="1" fill-rule="nonzero"/><path fill="rgb(50.979614%, 53.329468%, 51.759338%)" d="M 267.390625 215.277344 L 267.390625 221.296875 C 264.96875 222.628906 262.921875 224.347656 259.117188 224.304688 C 259.289062 221.125 257.960938 219.445312 257.613281 216.78125 C 259.832031 214.644531 264.273438 212.292969 267.390625 215.277344 " fill-opacity="1" fill-rule="nonzero"/><path fill="rgb(50.979614%, 53.329468%, 51.759338%)" d="M 255.359375 243.859375 C 251.34375 243.113281 247.746094 241.945312 248.589844 236.335938 C 250.582031 235.222656 254.871094 233.574219 256.863281 234.832031 C 256.789062 238.269531 257.472656 242.464844 255.359375 243.859375 " fill-opacity="1" fill-rule="nonzero"/><path fill="rgb(50.979614%, 53.329468%, 51.759338%)" d="M 247.085938 249.882812 C 248.539062 251.714844 247.804688 256.175781 247.085938 258.15625 C 245.320312 259.652344 242.300781 259.890625 238.8125 259.660156 C 239.210938 254.414062 241.628906 247.605469 247.085938 249.882812 " fill-opacity="1" fill-rule="nonzero"/><path fill="rgb(50.979614%, 53.329468%, 51.759338%)" d="M 236.558594 264.925781 C 238 271.292969 233.511719 275.199219 228.289062 272.449219 C 228.515625 267.414062 230.300781 263.929688 236.558594 264.925781 " fill-opacity="1" fill-rule="nonzero"/><path fill="rgb(50.979614%, 53.329468%, 51.759338%)" d="M 223.773438 276.207031 C 224.167969 280.863281 222.164062 283.121094 218.511719 283.730469 C 214.570312 280.386719 218.207031 272.339844 223.773438 276.207031 " fill-opacity="1" fill-rule="nonzero"/><path fill="rgb(50.979614%, 53.329468%, 51.759338%)" d="M 210.988281 284.480469 C 215.492188 284.199219 215.394531 290.523438 213.25 292.757812 L 207.980469 292.757812 C 207.960938 288.972656 211.007812 288.261719 210.988281 284.480469 " fill-opacity="1" fill-rule="nonzero"/><path fill="rgb(50.979614%, 53.329468%, 51.759338%)" d="M 351.6875 167.839844 C 351.6875 167.839844 372.757812 159.492188 385.679688 172.40625 C 385.679688 172.40625 390.046875 281.683594 389.851562 281.683594 C 389.652344 281.683594 433.585938 281.488281 433.585938 281.488281 C 433.585938 281.488281 434.375 169.035156 448.296875 168.433594 C 448.296875 168.433594 464.597656 166.449219 469.566406 167.042969 C 474.53125 167.644531 475.328125 167.644531 475.328125 167.644531 L 479.707031 139.433594 C 479.707031 139.433594 426.03125 108.035156 345.324219 138.636719 C 345.324219 138.636719 343.136719 147.574219 351.6875 167.839844 " fill-opacity="1" fill-rule="nonzero"/><path fill="rgb(50.979614%, 53.329468%, 51.759338%)" d="M 639.332031 145.191406 C 639.332031 145.191406 662.390625 149.363281 663.78125 168.238281 C 665.171875 187.117188 665.96875 278.707031 665.96875 278.707031 L 708.109375 278.707031 L 715.664062 166.054688 C 715.664062 166.054688 739.320312 190.492188 743.292969 219.101562 C 747.273438 247.710938 749.65625 277.910156 749.65625 277.910156 L 811.082031 271.550781 C 811.082031 271.550781 815.65625 269.5625 815.65625 266.78125 C 815.65625 264 814.265625 263.007812 809.886719 261.417969 C 805.519531 259.832031 792.796875 257.046875 792.796875 257.046875 L 797.363281 126.316406 L 745.085938 138.238281 L 744.691406 152.742188 L 712.484375 124.53125 L 643.308594 140.824219 C 643.308594 140.824219 635.554688 142.609375 639.332031 145.191406 " fill-opacity="1" fill-rule="nonzero"/><path fill="rgb(50.979614%, 53.329468%, 51.759338%)" d="M 983.429688 179.5625 L 1063.140625 127.507812 C 1063.140625 127.507812 1073.277344 119.957031 1079.835938 127.105469 C 1086.398438 134.261719 1112.839844 169.035156 1112.839844 169.035156 L 1115.621094 173.007812 C 1115.621094 173.007812 1118.792969 175.992188 1115.023438 178.769531 C 1111.253906 181.550781 1105.480469 186.320312 1105.480469 186.320312 C 1105.480469 186.320312 1105.28125 189.496094 1100.714844 187.117188 C 1096.136719 184.734375 1081.628906 175.792969 1081.628906 175.792969 C 1081.628906 175.792969 1078.050781 174.59375 1073.476562 177.175781 C 1068.910156 179.757812 1037.105469 205.394531 1037.105469 205.394531 C 1037.105469 205.394531 1034.71875 206.585938 1036.109375 210.953125 C 1037.5 215.324219 1053.398438 260.621094 1075.664062 245.324219 C 1075.664062 245.324219 1088.988281 232.808594 1080.042969 214.730469 C 1080.042969 214.730469 1078.445312 212.34375 1082.222656 212.34375 C 1086 212.34375 1143.050781 213.140625 1143.050781 213.140625 L 1143.054688 273.34375 L 1100.121094 273.34375 L 1098.128906 253.472656 L 1058.769531 273.738281 C 1058.769531 273.738281 1052.410156 278.507812 1048.238281 274.339844 C 1044.066406 270.167969 980.246094 189.890625 980.246094 189.890625 C 980.246094 189.890625 976.074219 183.535156 983.429688 179.5625 " fill-opacity="1" fill-rule="nonzero"/><path fill="rgb(50.979614%, 53.329468%, 51.759338%)" d="M 1316.789062 259.832031 L 1306.257812 259.632812 C 1306.257812 259.632812 1278.625 225.058594 1273.457031 219.5 C 1268.289062 213.9375 1283.792969 215.722656 1289.355469 213.9375 C 1294.917969 212.148438 1297.507812 208.171875 1297.507812 208.171875 C 1297.507812 208.171875 1302.882812 197.449219 1304.667969 193.46875 C 1306.453125 189.492188 1303.472656 182.546875 1303.472656 182.546875 C 1303.472656 182.546875 1268.488281 131.085938 1262.523438 124.925781 C 1256.554688 118.765625 1251.785156 122.539062 1251.785156 122.539062 L 1215.808594 137.246094 C 1215.808594 137.246094 1215.015625 126.117188 1215.015625 123.132812 C 1215.015625 120.15625 1211.042969 120.953125 1211.042969 120.953125 L 1147.425781 137.046875 C 1138.082031 139.433594 1143.054688 144.796875 1143.054688 144.796875 C 1143.054688 144.796875 1156.570312 157.511719 1157.367188 158.109375 C 1158.164062 158.703125 1163.128906 163.867188 1163.128906 163.867188 L 1162.734375 273.738281 C 1162.734375 273.738281 1197.917969 273.9375 1201.09375 273.738281 C 1204.273438 273.546875 1204.277344 270.761719 1204.277344 270.761719 C 1204.277344 270.761719 1205.867188 231.421875 1207.859375 225.058594 C 1209.847656 218.703125 1216.003906 224.269531 1216.003906 224.269531 C 1216.003906 224.269531 1258.546875 266.78125 1262.71875 270.558594 C 1266.898438 274.339844 1267.886719 272.347656 1267.886719 272.347656 C 1267.886719 272.347656 1310.824219 265.792969 1313.414062 265.398438 C 1316 265.003906 1319.375 263.605469 1319.769531 261.820312 C 1320.164062 260.027344 1316.789062 259.832031 1316.789062 259.832031 M 1263.515625 182.941406 C 1262.71875 186.316406 1258.941406 189.695312 1257.75 190.492188 C 1256.554688 191.289062 1227.738281 199.429688 1222.769531 198.832031 C 1217.796875 198.238281 1214.210938 198.640625 1226.539062 184.726562 C 1238.871094 170.820312 1256.957031 150.355469 1260.933594 157.90625 C 1260.933594 157.90625 1264.308594 179.566406 1263.515625 182.941406 " fill-opacity="1" fill-rule="nonzero"/><path fill="rgb(50.979614%, 53.329468%, 51.759338%)" d="M 1453.558594 189.695312 C 1449.78125 186.511719 1386.566406 125.125 1386.566406 125.125 L 1382.390625 115.1875 L 1316.195312 130.28125 C 1316.195312 130.28125 1308.050781 132.265625 1308.445312 135.652344 C 1308.839844 139.03125 1316.789062 139.230469 1320.367188 141.414062 C 1323.949219 143.597656 1328.125 146.382812 1327.929688 150.355469 L 1330.910156 271.75 L 1373.84375 270.753906 L 1373.84375 254.066406 L 1424.335938 252.675781 L 1427.519531 268.371094 C 1427.519531 268.371094 1429.109375 271.949219 1433.480469 271.355469 C 1437.851562 270.753906 1449.78125 270.355469 1449.78125 270.355469 L 1450.972656 270.355469 C 1450.972656 270.355469 1449.78125 238.96875 1451.171875 230.621094 C 1452.5625 222.277344 1457.335938 192.875 1453.558594 189.695312 M 1373.839844 240.160156 L 1370.070312 158.695312 C 1370.070312 158.695312 1368.671875 154.722656 1372.25 153.53125 C 1375.832031 152.339844 1379.804688 154.328125 1381.796875 157.308594 C 1383.785156 160.285156 1401.074219 187.703125 1404.65625 191.875 C 1408.234375 196.050781 1413.796875 207.375 1414.59375 209.761719 C 1415.390625 212.148438 1418.367188 225.652344 1419.761719 227.640625 C 1421.152344 229.632812 1421.753906 236.976562 1421.753906 236.976562 Z M 1373.839844 240.160156 " fill-opacity="1" fill-rule="nonzero"/><path fill="rgb(50.979614%, 53.329468%, 51.759338%)" d="M 960.964844 190.089844 C 953.808594 183.132812 900.929688 132.273438 900.929688 132.273438 C 900.929688 132.273438 897.746094 127.503906 896.757812 125.714844 C 895.761719 123.929688 895.566406 120.148438 889.601562 121.144531 C 883.632812 122.140625 827.582031 136.441406 827.582031 136.441406 C 827.582031 136.441406 821.019531 136.644531 821.019531 138.828125 C 821.019531 141.015625 822.414062 142.792969 826.386719 144.386719 C 826.386719 144.386719 839.703125 148.761719 839.90625 152.339844 C 840.105469 155.917969 843.480469 277.507812 843.480469 277.507812 L 885.625 277.507812 L 885.824219 259.628906 L 936.519531 257.835938 C 936.519531 257.835938 937.5 274.328125 939.695312 276.316406 L 963.351562 276.316406 C 963.351562 276.316406 963.152344 237.378906 964.546875 228.835938 C 965.929688 220.289062 968.125 197.046875 960.964844 190.089844 M 885.625 245.71875 L 881.855469 164.257812 C 881.855469 164.257812 880.457031 160.285156 884.035156 159.09375 C 887.617188 157.898438 891.589844 159.890625 893.582031 162.867188 C 895.566406 165.847656 912.859375 193.265625 916.441406 197.4375 C 920.019531 201.613281 925.582031 212.9375 926.378906 215.316406 C 927.171875 217.703125 930.152344 231.214844 931.542969 233.203125 C 932.9375 235.1875 933.53125 242.539062 933.53125 242.539062 Z M 885.625 245.71875 " fill-opacity="1" fill-rule="nonzero"/><path fill="rgb(50.979614%, 53.329468%, 51.759338%)" d="M 573.339844 135.257812 L 569.164062 124.328125 L 497.601562 140.617188 C 497.601562 140.617188 493.625 141.21875 496.410156 146.582031 C 496.410156 146.582031 513.109375 149.960938 513.902344 154.53125 C 514.699219 159.097656 518.074219 280.894531 518.074219 280.894531 L 560.023438 280.289062 L 561.011719 262.808594 L 609.914062 261.417969 L 612.101562 275.523438 C 612.101562 275.523438 612.898438 279.695312 616.671875 279.894531 C 620.449219 280.097656 636.75 279.496094 636.75 279.496094 C 636.75 279.496094 639.53125 202.410156 641.125 199.429688 Z M 560.417969 248.105469 L 556.640625 166.648438 C 556.640625 166.648438 555.25 162.667969 558.828125 161.476562 C 562.402344 160.285156 566.378906 162.273438 568.367188 165.253906 C 570.359375 168.238281 587.65625 195.648438 591.234375 199.828125 C 594.808594 203.996094 600.371094 215.324219 601.167969 217.707031 C 601.964844 220.09375 604.945312 233.597656 606.335938 235.585938 C 607.726562 237.578125 608.324219 244.921875 608.324219 244.921875 Z M 560.417969 248.105469 " fill-opacity="1" fill-rule="nonzero"/></svg>